<svg xmlns="http://www.w3.org/2000/svg" viewBox="0 0 96.52 104"><path d="M33.79,19.47q-1.8-9.7,0-11.1Q39.07-1.54,49.71.28C60.34,2.12,64.86,7.41,62.84,19.12q-2,11.7-26.54,5.63Z" style="fill:#1f2e54"/><path d="M96.52,104H0Q8.94,59.77,12.82,53.18t19.25-9.6c1.19-.25,2.43-.47,3.73-.68.6-.11,1.21-.2,1.84-.29l1.37-.2h0L48,42h.07l1.64-.08,1.92-.08,6.84-.31h0l.94.17c.78.14,1.55.29,2.3.45l.31.07q20.91,4.55,26.78,19.62C92.39,71.08,95.18,88.92,96.52,104Z" style="fill:#5770be"/><path d="M37.53,42.12,48.11,87.5,59.53,41.25Z" style="fill:#fff"/><path d="M28.1,84.84q0,6.91-.6,19.16H23.8q1-7.73,2.66-19.15.45-3.19.95-6.67c0-.25.07-.51.11-.76s.05-.34.07-.51l0-.36a6,6,0,0,1,.19.9c.07.43.13,1,.18,1.57v0C28,80.48,28.1,82.41,28.1,84.84Z" style="fill:#4e65ab"/><path d="M64.69,55.58a44.9,44.9,0,0,0-3.33-15" style="fill-opacity:0;stroke:#fff;stroke-width:2.799999952316284px"/><path d="M36.18,41.12q-8.76,2.57-8.77,19.42V81.35" style="fill-opacity:0;stroke:#fff;stroke-width:2.799999952316284px"/><path d="M23.48,81.17a3.76,3.76,0,1,0,7.52,0h0a3.76,3.76,0,1,0-7.52,0Z" style="fill:#fff"/><path d="M38,29.58A41.87,41.87,0,0,1,39,42.5q4.37,10.67,10,10.67t9.47-11.54A24.74,24.74,0,0,1,58.91,32Q60.07,27,38,29.58Z" style="fill:#a26959"/><path d="M58.42,33.74q-4.34,10-14.54,10c-3,.43-2.27,2.28-1.69,4.85A29.46,29.46,0,0,1,39,42.5L38,31.21Z" style="fill:#7f5447"/><path d="M62,27c.68-.37,1.47-1.78,1.82-4.64S63,19,62.27,19.26c-.47.16-1.24,1.38-2.3,3.66l.1-5a9.67,9.67,0,0,1-2.63-6.55Q49.87,13.9,40.92,9a24.6,24.6,0,0,1-2.23,3.34,14,14,0,0,1-2.16,2.06l.23,8.54-2.21-3.67c-2.92,0-.77,5.75,0,7.18.51,1,1.38,1.16,2.59.6,0,0,2.9,13.35,11,13.94s12-10.14,12-13.94A2.52,2.52,0,0,0,62,27Z" style="fill:#a26959"/><path d="M54.08,27.81a32.2,32.2,0,0,1-15.29-.67c-.39-.11-1.26-.58-1.58-.31s0,1.22,0,1.65a34.69,34.69,0,0,0,2.65,8c1,1.69,3.26,4.76,4.76,5.17,2.06.55,5.93.56,8-.38a12.38,12.38,0,0,0,3.94-3.65,26.12,26.12,0,0,0,3.08-4.82c.38-1.35,1.92-5.4,1-6.4C59.86,25.43,55.08,27.61,54.08,27.81Z" style="fill:#fff"/><path d="M75.32,104H73.18q.28-6.3.81-16c0-.08,0-.17,0-.25.18-3.32.37-6.94.59-10.85l0-.36q.48,1.55.66,9.84c0,.44,0,.9,0,1.37v0c0,.38,0,.77,0,1.17Q75.35,95.06,75.32,104Z" style="fill:#4e65ab"/><path d="M75.62,87.74Q58.79,88.57,59.36,62a6.89,6.89,0,0,1,1.93-4.22,5.63,5.63,0,0,1,8.23,1.28c4,6.3,3.63,28.33-8.23,30.91" style="fill-opacity:0;stroke:#fff;stroke-width:2.5999999046325684px"/><path d="M74.09,87.68a1.32,1.32,0,1,0,1.32-1.32A1.32,1.32,0,0,0,74.09,87.68Z" style="fill:#062721"/><path d="M60.05,89.94a1.32,1.32,0,1,0,1.31-1.32A1.31,1.31,0,0,0,60.05,89.94Z" style="fill:#062721"/></svg>
