<?xml version="1.0" encoding="utf-8"?>
<!-- Generator: Adobe Illustrator 24.3.0, SVG Export Plug-In . SVG Version: 6.00 Build 0)  -->
<svg version="1.1" id="Calque_1" xmlns="http://www.w3.org/2000/svg" xmlns:xlink="http://www.w3.org/1999/xlink" x="0px" y="0px"
	 viewBox="0 0 512 512" style="enable-background:new 0 0 512 512;" xml:space="preserve">
<style type="text/css">
	.st0{fill:url(#SVGID_1_);}
	.st1{fill:url(#SVGID_2_);}
	.st2{fill:url(#SVGID_3_);}
	.st3{fill:url(#SVGID_4_);}
	.st4{fill:url(#SVGID_5_);}
	.st5{fill:url(#SVGID_6_);}
	.st6{fill:url(#SVGID_7_);}
	.st7{fill:url(#SVGID_8_);}
	.st8{fill:url(#SVGID_9_);}
	.st9{fill:url(#SVGID_10_);}
</style>
<linearGradient id="SVGID_1_" gradientUnits="userSpaceOnUse" x1="146.1071" y1="355.6" x2="146.1071" y2="354.8111">
	<stop  offset="0" style="stop-color:#F3F7FF"/>
	<stop  offset="0.99" style="stop-color:#B5D1FF"/>
</linearGradient>
<path class="st0" d="M157.7,332.4c1.9,4.8-0.4,10.3-5.2,12.2c-5.4,1.1-10.9,1.5-16.3,1.1c-1.2,0-2.2-1-2.2-2.2v-15h0
	c0-1.2,1-2.2,2.2-2.2c4.8-0.1,9.7,0.1,14.5,0.5C153.8,327.2,156.5,329.3,157.7,332.4z"/>
<linearGradient id="SVGID_2_" gradientUnits="userSpaceOnUse" x1="239.17" y1="491.1161" x2="239.17" y2="485.4111">
	<stop  offset="0" style="stop-color:#F3F7FF"/>
	<stop  offset="0.99" style="stop-color:#B5D1FF"/>
</linearGradient>
<path class="st1" d="M225.9,336.7c-1.2-5-5.3-8.9-10.4-9.9c-5.1-0.6-10.3-0.8-15.4-0.7c-1.2,0-2.2,1-2.2,2.2h0v41
	c0,1.2,1,2.2,2.2,2.2c5.5,0.3,11.1,0.1,16.5-0.7c4.7-1,8.4-4.7,9.2-9.5c1.1-4.1,1.5-8.3,1.4-12.6
	C227.4,344.8,226.9,340.7,225.9,336.7z M225.9,336.7c-1.2-5-5.3-8.9-10.4-9.9c-5.1-0.6-10.3-0.8-15.4-0.7c-1.2,0-2.2,1-2.2,2.2h0v41
	c0,1.2,1,2.2,2.2,2.2c5.5,0.3,11.1,0.1,16.5-0.7c4.7-1,8.4-4.7,9.2-9.5c1.1-4.1,1.5-8.3,1.4-12.6
	C227.4,344.8,226.9,340.7,225.9,336.7z M225.9,336.7c-1.2-5-5.3-8.9-10.4-9.9c-5.1-0.6-10.3-0.8-15.4-0.7c-1.2,0-2.2,1-2.2,2.2h0v41
	c0,1.2,1,2.2,2.2,2.2c5.5,0.3,11.1,0.1,16.5-0.7c4.7-1,8.4-4.7,9.2-9.5c1.1-4.1,1.5-8.3,1.4-12.6
	C227.4,344.8,226.9,340.7,225.9,336.7z M225.9,336.7c-1.2-5-5.3-8.9-10.4-9.9c-5.1-0.6-10.3-0.8-15.4-0.7c-1.2,0-2.2,1-2.2,2.2h0v41
	c0,1.2,1,2.2,2.2,2.2c5.5,0.3,11.1,0.1,16.5-0.7c4.7-1,8.4-4.7,9.2-9.5c1.1-4.1,1.5-8.3,1.4-12.6
	C227.4,344.8,226.9,340.7,225.9,336.7z M368.2,277.7H96V420h272.2c7.8,0,14.2-6.3,14.2-14.2v-114C382.3,284,376,277.7,368.2,277.7z
	 M157.3,356.3c-7,0.8-14.1,1.2-21.2,1c-1.2,0-2.2,1-2.2,2.2v16.8c0,3.8-3.1,6.9-6.9,6.9c-1.9,0-3.7-0.8-4.9-2c-1.2-1.3-2-3-2-4.9
	v-54.8c0-3.8,3.1-7,6.9-7c2.9-0.1,5.8-0.2,8.7-0.2c7.7,0,15.4,0.4,23.1,1.2c8.8,2.6,14.6,11,13.9,20.1
	C173.3,345.4,166.8,354.1,157.3,356.3z M241.6,349.5c0.1,5-0.6,9.9-2.1,14.6c-2.2,8.5-8.7,15.1-17.1,17.6c-10.4,1.5-20.9,2-31.4,1.5
	c-3.8,0-6.9-3.1-6.9-6.9v-54.8c0-3.8,3.1-7,6.9-7c3.1-0.2,6.2-0.3,9.3-0.3c7.4,0,14.8,0.5,22.2,1.6c8.2,2.7,14.5,9.2,16.9,17.5
	C241,338.5,241.7,344,241.6,349.5z M298.9,324.4c-1,1-2.5,1.7-4.1,1.7h-25.2c-1.2,0-2.2,1-2.2,2.2v11.8c0,1.2,1,2.2,2.2,2.2h20.6
	c3.2,0,5.8,2.6,5.8,5.8c0,3.2-2.6,5.8-5.8,5.8h-20.6c-1.2,0-2.2,1-2.2,2.2v20c0,3.8-3.1,6.9-7,6.9c-3.8,0-7-3.1-7-6.9v-54.8
	c0-3.8,3.1-7,6.9-7h34.3c3.2,0,5.8,2.6,5.8,5.8C300.6,321.9,299.9,323.4,298.9,324.4z M215.5,326.8c-5.1-0.6-10.3-0.8-15.4-0.7
	c-1.2,0-2.2,1-2.2,2.2h0v41c0,1.2,1,2.2,2.2,2.2c5.5,0.3,11.1,0.1,16.5-0.7c4.7-1,8.4-4.7,9.2-9.5c1.1-4.1,1.5-8.3,1.4-12.6
	c0.1-4.1-0.3-8.2-1.4-12.2C224.6,331.6,220.6,327.8,215.5,326.8z M225.9,336.7c-1.2-5-5.3-8.9-10.4-9.9c-5.1-0.6-10.3-0.8-15.4-0.7
	c-1.2,0-2.2,1-2.2,2.2h0v41c0,1.2,1,2.2,2.2,2.2c5.5,0.3,11.1,0.1,16.5-0.7c4.7-1,8.4-4.7,9.2-9.5c1.1-4.1,1.5-8.3,1.4-12.6
	C227.4,344.8,226.9,340.7,225.9,336.7z M225.9,336.7c-1.2-5-5.3-8.9-10.4-9.9c-5.1-0.6-10.3-0.8-15.4-0.7c-1.2,0-2.2,1-2.2,2.2h0v41
	c0,1.2,1,2.2,2.2,2.2c5.5,0.3,11.1,0.1,16.5-0.7c4.7-1,8.4-4.7,9.2-9.5c1.1-4.1,1.5-8.3,1.4-12.6
	C227.4,344.8,226.9,340.7,225.9,336.7z M225.9,336.7c-1.2-5-5.3-8.9-10.4-9.9c-5.1-0.6-10.3-0.8-15.4-0.7c-1.2,0-2.2,1-2.2,2.2h0v41
	c0,1.2,1,2.2,2.2,2.2c5.5,0.3,11.1,0.1,16.5-0.7c4.7-1,8.4-4.7,9.2-9.5c1.1-4.1,1.5-8.3,1.4-12.6
	C227.4,344.8,226.9,340.7,225.9,336.7z M225.9,336.7c-1.2-5-5.3-8.9-10.4-9.9c-5.1-0.6-10.3-0.8-15.4-0.7c-1.2,0-2.2,1-2.2,2.2h0v41
	c0,1.2,1,2.2,2.2,2.2c5.5,0.3,11.1,0.1,16.5-0.7c4.7-1,8.4-4.7,9.2-9.5c1.1-4.1,1.5-8.3,1.4-12.6
	C227.4,344.8,226.9,340.7,225.9,336.7z"/>
<linearGradient id="SVGID_3_" gradientUnits="userSpaceOnUse" x1="408.305" y1="512" x2="408.305" y2="-9.094947e-13">
	<stop  offset="0" style="stop-color:#F3F7FF"/>
	<stop  offset="0.99" style="stop-color:#B5D1FF"/>
</linearGradient>
<path class="st2" d="M456,90.7V504c0,4.4-3.6,8-8,8h-8c4.4,0,8-3.6,8-8V87.4h-79.4c-4.4,0-8-3.6-8-8V0h4.7c2.1,0,4.2,0.8,5.7,2.3
	L453.7,85C455.2,86.5,456,88.6,456,90.7z"/>
<linearGradient id="SVGID_4_" gradientUnits="userSpaceOnUse" x1="146.1071" y1="347.4354" x2="146.1071" y2="298.4298">
	<stop  offset="0" style="stop-color:#F3F7FF"/>
	<stop  offset="0.99" style="stop-color:#B5D1FF"/>
</linearGradient>
<path class="st3" d="M157.7,332.4c1.9,4.8-0.4,10.3-5.2,12.2c-5.4,1.1-10.9,1.5-16.3,1.1c-1.2,0-2.2-1-2.2-2.2v-15h0
	c0-1.2,1-2.2,2.2-2.2c4.8-0.1,9.7,0.1,14.5,0.5C153.8,327.2,156.5,329.3,157.7,332.4z"/>
<linearGradient id="SVGID_5_" gradientUnits="userSpaceOnUse" x1="235.17" y1="432.0702" x2="235.17" y2="77.6659">
	<stop  offset="0" style="stop-color:#F3F7FF"/>
	<stop  offset="0.99" style="stop-color:#B5D1FF"/>
</linearGradient>
<path class="st4" d="M225.9,336.7c-1.2-5-5.3-8.9-10.4-9.9c-5.1-0.6-10.3-0.8-15.4-0.7c-1.2,0-2.2,1-2.2,2.2h0v41
	c0,1.2,1,2.2,2.2,2.2c5.5,0.3,11.1,0.1,16.5-0.7c4.7-1,8.4-4.7,9.2-9.5c1.1-4.1,1.5-8.3,1.4-12.6
	C227.4,344.8,226.9,340.7,225.9,336.7z M225.9,336.7c-1.2-5-5.3-8.9-10.4-9.9c-5.1-0.6-10.3-0.8-15.4-0.7c-1.2,0-2.2,1-2.2,2.2h0v41
	c0,1.2,1,2.2,2.2,2.2c5.5,0.3,11.1,0.1,16.5-0.7c4.7-1,8.4-4.7,9.2-9.5c1.1-4.1,1.5-8.3,1.4-12.6
	C227.4,344.8,226.9,340.7,225.9,336.7z M225.9,336.7c-1.2-5-5.3-8.9-10.4-9.9c-5.1-0.6-10.3-0.8-15.4-0.7c-1.2,0-2.2,1-2.2,2.2h0v41
	c0,1.2,1,2.2,2.2,2.2c5.5,0.3,11.1,0.1,16.5-0.7c4.7-1,8.4-4.7,9.2-9.5c1.1-4.1,1.5-8.3,1.4-12.6
	C227.4,344.8,226.9,340.7,225.9,336.7z M225.9,336.7c-1.2-5-5.3-8.9-10.4-9.9c-5.1-0.6-10.3-0.8-15.4-0.7c-1.2,0-2.2,1-2.2,2.2h0v41
	c0,1.2,1,2.2,2.2,2.2c5.5,0.3,11.1,0.1,16.5-0.7c4.7-1,8.4-4.7,9.2-9.5c1.1-4.1,1.5-8.3,1.4-12.6
	C227.4,344.8,226.9,340.7,225.9,336.7z M368.2,277.7H88V420h280.2c7.8,0,14.2-6.3,14.2-14.2v-114C382.3,284,376,277.7,368.2,277.7z
	 M157.3,356.3c-7,0.8-14.1,1.2-21.2,1c-1.2,0-2.2,1-2.2,2.2v16.8c0,3.8-3.1,6.9-6.9,6.9c-1.9,0-3.7-0.8-4.9-2c-1.2-1.3-2-3-2-4.9
	v-54.8c0-3.8,3.1-7,6.9-7c2.9-0.1,5.8-0.2,8.7-0.2c7.7,0,15.4,0.4,23.1,1.2c8.8,2.6,14.6,11,13.9,20.1
	C173.3,345.4,166.8,354.1,157.3,356.3z M241.6,349.5c0.1,5-0.6,9.9-2.1,14.6c-2.2,8.5-8.7,15.1-17.1,17.6c-10.4,1.5-20.9,2-31.4,1.5
	c-3.8,0-6.9-3.1-6.9-6.9v-54.8c0-3.8,3.1-7,6.9-7c3.1-0.2,6.2-0.3,9.3-0.3c7.4,0,14.8,0.5,22.2,1.6c8.2,2.7,14.5,9.2,16.9,17.5
	C241,338.5,241.7,344,241.6,349.5z M298.9,324.4c-1,1-2.5,1.7-4.1,1.7h-25.2c-1.2,0-2.2,1-2.2,2.2v11.8c0,1.2,1,2.2,2.2,2.2h20.6
	c3.2,0,5.8,2.6,5.8,5.8c0,3.2-2.6,5.8-5.8,5.8h-20.6c-1.2,0-2.2,1-2.2,2.2v20c0,3.8-3.1,6.9-7,6.9c-3.8,0-7-3.1-7-6.9v-54.8
	c0-3.8,3.1-7,6.9-7h34.3c3.2,0,5.8,2.6,5.8,5.8C300.6,321.9,299.9,323.4,298.9,324.4z M215.5,326.8c-5.1-0.6-10.3-0.8-15.4-0.7
	c-1.2,0-2.2,1-2.2,2.2h0v41c0,1.2,1,2.2,2.2,2.2c5.5,0.3,11.1,0.1,16.5-0.7c4.7-1,8.4-4.7,9.2-9.5c1.1-4.1,1.5-8.3,1.4-12.6
	c0.1-4.1-0.3-8.2-1.4-12.2C224.6,331.6,220.6,327.8,215.5,326.8z M225.9,336.7c-1.2-5-5.3-8.9-10.4-9.9c-5.1-0.6-10.3-0.8-15.4-0.7
	c-1.2,0-2.2,1-2.2,2.2h0v41c0,1.2,1,2.2,2.2,2.2c5.5,0.3,11.1,0.1,16.5-0.7c4.7-1,8.4-4.7,9.2-9.5c1.1-4.1,1.5-8.3,1.4-12.6
	C227.4,344.8,226.9,340.7,225.9,336.7z M225.9,336.7c-1.2-5-5.3-8.9-10.4-9.9c-5.1-0.6-10.3-0.8-15.4-0.7c-1.2,0-2.2,1-2.2,2.2h0v41
	c0,1.2,1,2.2,2.2,2.2c5.5,0.3,11.1,0.1,16.5-0.7c4.7-1,8.4-4.7,9.2-9.5c1.1-4.1,1.5-8.3,1.4-12.6
	C227.4,344.8,226.9,340.7,225.9,336.7z M225.9,336.7c-1.2-5-5.3-8.9-10.4-9.9c-5.1-0.6-10.3-0.8-15.4-0.7c-1.2,0-2.2,1-2.2,2.2h0v41
	c0,1.2,1,2.2,2.2,2.2c5.5,0.3,11.1,0.1,16.5-0.7c4.7-1,8.4-4.7,9.2-9.5c1.1-4.1,1.5-8.3,1.4-12.6
	C227.4,344.8,226.9,340.7,225.9,336.7z M225.9,336.7c-1.2-5-5.3-8.9-10.4-9.9c-5.1-0.6-10.3-0.8-15.4-0.7c-1.2,0-2.2,1-2.2,2.2h0v41
	c0,1.2,1,2.2,2.2,2.2c5.5,0.3,11.1,0.1,16.5-0.7c4.7-1,8.4-4.7,9.2-9.5c1.1-4.1,1.5-8.3,1.4-12.6
	C227.4,344.8,226.9,340.7,225.9,336.7z"/>
<linearGradient id="SVGID_6_" gradientUnits="userSpaceOnUse" x1="268" y1="512" x2="268" y2="-9.094947e-13">
	<stop  offset="0" style="stop-color:#F3F7FF"/>
	<stop  offset="0.99" style="stop-color:#B5D1FF"/>
</linearGradient>
<path class="st5" d="M448,87.4V504c0,4.4-3.6,8-8,8H96c-4.4,0-8-3.6-8-8v-84h280.2c7.8,0,14.2-6.3,14.2-14.2v-114
	c0-7.8-6.4-14.2-14.2-14.2H88V8c0-4.4,3.6-8,8-8h264.6v79.4c0,4.4,3.6,8,8,8H448z"/>
<linearGradient id="SVGID_7_" gradientUnits="userSpaceOnUse" x1="146.1071" y1="348.1956" x2="146.1071" y2="290.192">
	<stop  offset="0" style="stop-color:#FF5252"/>
	<stop  offset="1" style="stop-color:#D50000"/>
</linearGradient>
<path class="st6" d="M157.7,332.4c1.9,4.8-0.4,10.3-5.2,12.2c-5.4,1.1-10.9,1.5-16.3,1.1c-1.2,0-2.2-1-2.2-2.2v-15h0
	c0-1.2,1-2.2,2.2-2.2c4.8-0.1,9.7,0.1,14.5,0.5C153.8,327.2,156.5,329.3,157.7,332.4z"/>
<linearGradient id="SVGID_8_" gradientUnits="userSpaceOnUse" x1="212.5736" y1="377.4106" x2="212.5736" y2="242.7259">
	<stop  offset="0" style="stop-color:#FF5252"/>
	<stop  offset="1" style="stop-color:#D50000"/>
</linearGradient>
<path class="st7" d="M225.9,336.7c-1.2-5-5.3-8.9-10.4-9.9c-5.1-0.6-10.3-0.8-15.4-0.7c-1.2,0-2.2,1-2.2,2.2h0v41
	c0,1.2,1,2.2,2.2,2.2c5.5,0.3,11.1,0.1,16.5-0.7c4.7-1,8.4-4.7,9.2-9.5c1.1-4.1,1.5-8.3,1.4-12.6
	C227.4,344.8,226.9,340.7,225.9,336.7z M225.9,336.7c-1.2-5-5.3-8.9-10.4-9.9c-5.1-0.6-10.3-0.8-15.4-0.7c-1.2,0-2.2,1-2.2,2.2h0v41
	c0,1.2,1,2.2,2.2,2.2c5.5,0.3,11.1,0.1,16.5-0.7c4.7-1,8.4-4.7,9.2-9.5c1.1-4.1,1.5-8.3,1.4-12.6
	C227.4,344.8,226.9,340.7,225.9,336.7z M225.9,336.7c-1.2-5-5.3-8.9-10.4-9.9c-5.1-0.6-10.3-0.8-15.4-0.7c-1.2,0-2.2,1-2.2,2.2h0v41
	c0,1.2,1,2.2,2.2,2.2c5.5,0.3,11.1,0.1,16.5-0.7c4.7-1,8.4-4.7,9.2-9.5c1.1-4.1,1.5-8.3,1.4-12.6
	C227.4,344.8,226.9,340.7,225.9,336.7z M225.9,336.7c-1.2-5-5.3-8.9-10.4-9.9c-5.1-0.6-10.3-0.8-15.4-0.7c-1.2,0-2.2,1-2.2,2.2h0v41
	c0,1.2,1,2.2,2.2,2.2c5.5,0.3,11.1,0.1,16.5-0.7c4.7-1,8.4-4.7,9.2-9.5c1.1-4.1,1.5-8.3,1.4-12.6
	C227.4,344.8,226.9,340.7,225.9,336.7z M225.9,336.7c-1.2-5-5.3-8.9-10.4-9.9c-5.1-0.6-10.3-0.8-15.4-0.7c-1.2,0-2.2,1-2.2,2.2h0v41
	c0,1.2,1,2.2,2.2,2.2c5.5,0.3,11.1,0.1,16.5-0.7c4.7-1,8.4-4.7,9.2-9.5c1.1-4.1,1.5-8.3,1.4-12.6
	C227.4,344.8,226.9,340.7,225.9,336.7z M225.9,336.7c-1.2-5-5.3-8.9-10.4-9.9c-5.1-0.6-10.3-0.8-15.4-0.7c-1.2,0-2.2,1-2.2,2.2h0v41
	c0,1.2,1,2.2,2.2,2.2c5.5,0.3,11.1,0.1,16.5-0.7c4.7-1,8.4-4.7,9.2-9.5c1.1-4.1,1.5-8.3,1.4-12.6
	C227.4,344.8,226.9,340.7,225.9,336.7z M225.9,336.7c-1.2-5-5.3-8.9-10.4-9.9c-5.1-0.6-10.3-0.8-15.4-0.7c-1.2,0-2.2,1-2.2,2.2h0v41
	c0,1.2,1,2.2,2.2,2.2c5.5,0.3,11.1,0.1,16.5-0.7c4.7-1,8.4-4.7,9.2-9.5c1.1-4.1,1.5-8.3,1.4-12.6
	C227.4,344.8,226.9,340.7,225.9,336.7z M225.9,336.7c-1.2-5-5.3-8.9-10.4-9.9c-5.1-0.6-10.3-0.8-15.4-0.7c-1.2,0-2.2,1-2.2,2.2h0v41
	c0,1.2,1,2.2,2.2,2.2c5.5,0.3,11.1,0.1,16.5-0.7c4.7-1,8.4-4.7,9.2-9.5c1.1-4.1,1.5-8.3,1.4-12.6
	C227.4,344.8,226.9,340.7,225.9,336.7z M225.9,336.7c-1.2-5-5.3-8.9-10.4-9.9c-5.1-0.6-10.3-0.8-15.4-0.7c-1.2,0-2.2,1-2.2,2.2h0v41
	c0,1.2,1,2.2,2.2,2.2c5.5,0.3,11.1,0.1,16.5-0.7c4.7-1,8.4-4.7,9.2-9.5c1.1-4.1,1.5-8.3,1.4-12.6
	C227.4,344.8,226.9,340.7,225.9,336.7z"/>
<linearGradient id="SVGID_9_" gradientUnits="userSpaceOnUse" x1="219.17" y1="420" x2="219.17" y2="249.43">
	<stop  offset="0" style="stop-color:#FF5252"/>
	<stop  offset="1" style="stop-color:#D50000"/>
</linearGradient>
<path class="st8" d="M368.2,277.7H88v-28.3H70.1c-7.8,0-14.1,6.3-14.1,14.1v0c0,7.8,6.3,14.1,14.1,14.1H56v128.1c0,0,0,0,0,0
	c0,7.8,6.3,14.1,14.2,14.1h298c7.8,0,14.2-6.3,14.2-14.2v-114C382.3,284,376,277.7,368.2,277.7z M157.3,356.3
	c-7,0.8-14.1,1.2-21.2,1c-1.2,0-2.2,1-2.2,2.2v16.8c0,3.8-3.1,6.9-6.9,6.9c-1.9,0-3.7-0.8-4.9-2c-1.2-1.3-2-3-2-4.9v-54.8
	c0-3.8,3.1-7,6.9-7c2.9-0.1,5.8-0.2,8.7-0.2c7.7,0,15.4,0.4,23.1,1.2c8.8,2.6,14.6,11,13.9,20.1
	C173.3,345.4,166.8,354.1,157.3,356.3z M241.6,349.5c0.1,5-0.6,9.9-2.1,14.6c-2.2,8.5-8.7,15.1-17.1,17.6c-10.4,1.5-20.9,2-31.4,1.5
	c-3.8,0-6.9-3.1-6.9-6.9v-54.8c0-3.8,3.1-7,6.9-7c3.1-0.2,6.2-0.3,9.3-0.3c7.4,0,14.8,0.5,22.2,1.6c8.2,2.7,14.5,9.2,16.9,17.5
	C241,338.5,241.7,344,241.6,349.5z M298.9,324.4c-1,1-2.5,1.7-4.1,1.7h-25.2c-1.2,0-2.2,1-2.2,2.2v11.8c0,1.2,1,2.2,2.2,2.2h20.6
	c3.2,0,5.8,2.6,5.8,5.8c0,3.2-2.6,5.8-5.8,5.8h-20.6c-1.2,0-2.2,1-2.2,2.2v20c0,3.8-3.1,6.9-7,6.9c-3.8,0-7-3.1-7-6.9v-54.8
	c0-3.8,3.1-7,6.9-7h34.3c3.2,0,5.8,2.6,5.8,5.8C300.6,321.9,299.9,323.4,298.9,324.4z"/>
<linearGradient id="SVGID_10_" gradientUnits="userSpaceOnUse" x1="63.065" y1="280.1189" x2="63.065" y2="-14.3961">
	<stop  offset="0" style="stop-color:#FF5252"/>
	<stop  offset="1" style="stop-color:#D50000"/>
</linearGradient>
<path class="st9" d="M70.1,277.7H56v-14.1C56,271.4,62.3,277.7,70.1,277.7z"/>
</svg>
