<svg width="57" height="73" viewBox="0 0 57 73" fill="none" xmlns="http://www.w3.org/2000/svg">
    <g filter="url(#filter0_d)">
        <path d="M47.9761 64.1368H6.6735C5.55546 64.1368 4.64807 63.231 4.64807 62.1148V2.66894C4.64807 1.55282 5.55546 0.646973 6.6735 0.646973H47.9761C50.2203 0.646973 52.0432 2.46675 52.0432 4.70709V60.0929C52.0432 62.3251 50.2284 64.1368 47.9761 64.1368Z" fill="#3D56A8"/>
        <path d="M41.2112 47.4758H15.9825C15.5045 47.4758 15.0994 47.1927 15.0994 46.8449V44.3862C15.0994 44.0304 15.4883 43.7554 15.9825 43.7554H41.2031C41.6811 43.7554 42.0862 44.0384 42.0862 44.3862V46.8449C42.0943 47.1927 41.6892 47.4758 41.2112 47.4758Z" fill="#B8EED4"/>
        <path d="M38.4648 54.674H18.1942C17.619 54.674 17.0438 54.213 16.9466 53.6468C16.8088 52.8542 17.4084 52.1667 18.1618 52.1667H38.4323C39.0076 52.1667 39.5828 52.6278 39.68 53.1939C39.8177 53.9865 39.2263 54.674 38.4648 54.674Z" fill="#B8EED4"/>
        <path d="M47.9681 64.7839H6.68167C5.20716 64.7839 4 63.5788 4 62.1068V2.67709C4 1.20509 5.20716 0 6.68167 0H47.9762C50.5849 0 52.6995 2.11094 52.6995 4.71523V60.0929C52.6914 62.673 50.5768 64.7839 47.9681 64.7839ZM5.29628 2.67709V62.1068C5.29628 62.8671 5.92011 63.4898 6.68167 63.4898H47.9843C49.8558 63.4898 51.3951 61.9612 51.3951 60.0848V4.69906C51.3951 2.83076 49.8639 1.29406 47.9843 1.29406H6.68167C5.92011 1.29406 5.29628 1.91683 5.29628 2.67709Z" fill="#3D56A8"/>
        <path d="M41.6731 16.742C41.6731 16.2163 41.6731 9.42244 41.6731 8.89673C41.1465 8.89673 34.3411 8.89673 33.8145 8.89673V16.742H41.6731Z" fill="#B8EED4"/>
        <path d="M35.3538 15.2051H40.0528C40.0528 14.639 40.0528 11.0965 40.0528 10.5142C39.4856 10.5142 35.9371 10.5142 35.3538 10.5142V15.2051Z" fill="#B8EED4"/>
        <path d="M33.8145 35.5867H41.6731C41.6731 35.061 41.6731 28.2672 41.6731 27.7415C41.1465 27.7415 34.3411 27.7415 33.8145 27.7415V35.5867Z" fill="#B8EED4"/>
        <path d="M35.3538 33.969H40.0528C40.0528 33.4029 40.0528 29.8604 40.0528 29.2781C39.4856 29.2781 35.9371 29.2781 35.3538 29.2781V33.969Z" fill="#B8EED4"/>
        <path d="M14.9374 27.6606H22.7961V35.5059H14.9374V27.6606Z" fill="#B8EED4"/>
        <path d="M16.5577 29.2781H21.2567V33.969H16.5577V29.2781Z" fill="#B8EED4"/>
        <path d="M18.097 30.8147H19.6364V32.3514H18.097V30.8147Z" fill="#B8EED4"/>
        <path d="M24.4164 33.969H28.3052V35.5057H24.4164V33.969Z" fill="#B8EED4"/>
        <path d="M24.4164 30.8147H26.7659V32.3514H24.4164V30.8147Z" fill="#B8EED4"/>
        <path d="M19.7174 24.5872H21.2567V26.1239H19.7174V24.5872Z" fill="#B8EED4"/>
        <path d="M18.1133 26.1238H15.0184V21.4329H16.5578V24.5871H18.0971V26.1238H18.1133Z" fill="#B8EED4"/>
        <path d="M40.0366 24.5871C39.4937 24.5871 39.0481 24.5871 38.5134 24.5871V26.1238H41.5921C41.5921 25.5658 41.5921 22.0152 41.5921 21.4329C41.0493 21.4329 40.5956 21.4329 40.0528 21.4329V24.5871H40.0366Z" fill="#B8EED4"/>
        <path d="M33.8145 26.1239H36.9741C36.9741 25.582 36.9741 25.129 36.9741 24.5872C36.5852 24.5872 34.2033 24.5872 33.8145 24.5872V26.1239Z" fill="#B8EED4"/>
        <path d="M32.1941 24.5872C31.1409 24.5872 28.9129 24.5872 28.3053 24.5872V26.1239H32.1941C32.1941 25.582 32.1941 25.129 32.1941 24.5872Z" fill="#B8EED4"/>
        <path d="M32.1941 27.6606C31.6432 27.6606 31.2057 27.6606 30.6548 27.6606V30.8149C29.8689 30.8149 29.0912 30.8149 28.3053 30.8149V32.4325H32.1941C32.1941 31.8583 32.1941 28.2511 32.1941 27.6606Z" fill="#B8EED4"/>
        <path d="M28.289 29.2781H24.4164V26.1239H22.796V24.5872H25.9557V27.7414H28.3052V29.2781H28.289Z" fill="#B8EED4"/>
        <path d="M33.8145 19.8963H35.3538C35.3538 19.3544 35.3538 18.9015 35.3538 18.3596H33.8145V19.8963Z" fill="#B8EED4"/>
        <path d="M33.8145 23.0506H35.3538C35.3538 22.5087 35.3538 22.0558 35.3538 21.5139H33.8145V23.0506Z" fill="#B8EED4"/>
        <path d="M36.9741 23.0506H38.5134C38.5134 22.6624 38.5134 20.2845 38.5134 19.8963H41.6731C41.6731 19.3463 41.6731 18.9096 41.6731 18.3596C41.106 18.3596 37.5574 18.3596 36.9741 18.3596V23.0506Z" fill="#B8EED4"/>
        <path d="M30.6548 22.9697H32.1941C32.1941 22.4521 32.1941 15.7229 32.1941 15.2053C31.0113 15.2053 29.5611 15.2053 28.3053 15.2053V16.742H30.6548V22.9697Z" fill="#B8EED4"/>
        <path d="M22.796 21.4734C22.796 20.9234 22.796 20.4462 22.796 19.8962C22.2532 19.8962 21.7995 19.8962 21.2567 19.8962V23.0505H28.3052C28.3052 22.5005 28.3052 22.0395 28.3052 21.4896C26.8145 21.4734 23.6629 21.4734 22.796 21.4734Z" fill="#B8EED4"/>
        <path d="M19.7174 23.0506H18.1781V19.8963H15.0184V18.3596H19.7174V23.0506Z" fill="#B8EED4"/>
        <path d="M21.2567 15.2053H22.7961V18.3596H21.2567V15.2053Z" fill="#B8EED4"/>
        <path d="M24.4164 18.3596V19.8963H28.3052C28.3052 19.3544 28.3052 18.9015 28.3052 18.3596C27.2682 18.3596 25.0402 18.3596 24.4164 18.3596Z" fill="#B8EED4"/>
        <path d="M24.4164 12.051V16.742H25.9557C25.9557 16.3538 25.9557 13.9759 25.9557 13.5877H28.3052C28.3052 13.0458 28.3052 12.5929 28.3052 12.051C27.2682 12.051 25.0402 12.051 24.4164 12.051Z" fill="#B8EED4"/>
        <path d="M32.1941 8.97754C31.1409 8.97754 28.9129 8.97754 28.3053 8.97754V10.5142H32.1941C32.1941 9.97235 32.1941 9.51943 32.1941 8.97754Z" fill="#B8EED4"/>
        <path d="M16.5578 13.5877H15.0184V8.89673H19.7174V10.5143H16.5578V13.5877Z" fill="#B8EED4"/>
        <path d="M24.4164 8.97754H26.7659V10.5142H24.4164V8.97754Z" fill="#B8EED4"/>
        <path d="M29.8446 33.9692H32.1941V35.5059H29.8446V33.9692Z" fill="#B8EED4"/>
        <path d="M29.8446 12.051H32.1941V13.5877H29.8446V12.051Z" fill="#B8EED4"/>
        <path d="M22.7961 13.5877H18.097V12.051H21.2567V8.89673H22.7961V13.5877Z" fill="#B8EED4"/>
        <path d="M15.0184 15.2053H19.7174V16.742H15.0184V15.2053Z" fill="#B8EED4"/>
        <path d="M36.9741 30.8149H38.5134V32.3516H36.9741V30.8149Z" fill="#B8EED4"/>
        <path d="M36.9741 12.051H38.5134V13.5877H36.9741V12.051Z" fill="#B8EED4"/>
        <path d="M40.0528 10.5142H35.3538V15.2051H40.0528V10.5142Z" fill="#3D56A8"/>
        <path d="M21.2567 29.2781H16.5577V33.969H21.2567V29.2781Z" fill="#3D56A8"/>
        <path d="M40.0528 29.2781H35.3538V33.969H40.0528V29.2781Z" fill="#3D56A8"/>
        <path d="M38.5134 12.051H36.9741V13.5877H38.5134V12.051Z" fill="#B8EED4"/>
        <path d="M38.5134 30.8149H36.9741V32.3516H38.5134V30.8149Z" fill="#B8EED4"/>
        <path d="M19.7174 30.8149H18.1781V32.3516H19.7174V30.8149Z" fill="#B8EED4"/>
    </g>
    <defs>
        <filter id="filter0_d" x="0" y="0" width="56.6995" height="72.7839" filterUnits="userSpaceOnUse" color-interpolation-filters="sRGB">
            <feFlood flood-opacity="0" result="BackgroundImageFix"/>
            <feColorMatrix in="SourceAlpha" type="matrix" values="0 0 0 0 0 0 0 0 0 0 0 0 0 0 0 0 0 0 127 0"/>
            <feOffset dy="4"/>
            <feGaussianBlur stdDeviation="2"/>
            <feColorMatrix type="matrix" values="0 0 0 0 0 0 0 0 0 0 0 0 0 0 0 0 0 0 0.25 0"/>
            <feBlend mode="normal" in2="BackgroundImageFix" result="effect1_dropShadow"/>
            <feBlend mode="normal" in="SourceGraphic" in2="effect1_dropShadow" result="shape"/>
        </filter>
    </defs>
</svg>
