<?xml version="1.0" encoding="UTF-8"?>
<svg enable-background="new 0 0 512 512" version="1.1" viewBox="0 0 512 512" xml:space="preserve" xmlns="http://www.w3.org/2000/svg">
<style type="text/css">
	.st0{fill:url(#f);}
	.st1{fill:url(#e);}
	.st2{fill:url(#d);}
	.st3{fill:url(#c);}
	.st4{fill:url(#b);}
	.st5{fill:url(#a);}
	.st6{fill:#FFFFFF;}
</style>
<linearGradient id="f" x1="-580.62" x2="-580.62" y1="793.61" y2="791.05" gradientTransform="matrix(8 0 0 -8 4921 6093)" gradientUnits="userSpaceOnUse">
	<stop stop-color="#F3F7FF" offset="0"/>
	<stop stop-color="#B5D1FF" offset=".99"/>
</linearGradient>
<path class="st0" d="m448 512h-344c-4.4 0-8-3.6-8-8v-496c0-4.4 3.6-8 8-8h261.3c2.1 0 4.2 0.8 5.7 2.3l82.7 82.7c1.5 1.5 2.3 3.5 2.3 5.7v413.3c0 4.4-3.6 8-8 8z"/>
<linearGradient id="e" x1="-604.73" x2="-604.73" y1="731.18" y2="641.93" gradientTransform="matrix(8 0 0 -8 4921 6093)" gradientUnits="userSpaceOnUse">
	<stop stop-color="#FF5252" offset="0"/>
	<stop stop-color="#D50000" offset="1"/>
</linearGradient>
<path class="st1" d="M56,263.6l32-14.1l22.3,34.3H56V263.6z"/>
<linearGradient id="d" x1="-581.62" x2="-581.62" y1="767.05" y2="607.65" gradientTransform="matrix(8 0 0 -8 4921 6093)" gradientUnits="userSpaceOnUse">
	<stop stop-color="#F3F7FF" offset="0"/>
	<stop stop-color="#B5D1FF" offset=".99"/>
</linearGradient>
<path class="st2" d="m440 512h-344c-4.4 0-8-3.6-8-8v-496c0-4.4 3.6-8 8-8h264.6l87.4 87.4v416.6c0 4.4-3.6 8-8 8z"/>
<linearGradient id="c" x1="-564.59" x2="-564.59" y1="785.05" y2="765.62" gradientTransform="matrix(8 0 0 -8 4921 6093)" gradientUnits="userSpaceOnUse">
	<stop stop-color="#F3F7FF" offset="0"/>
	<stop stop-color="#B5D1FF" offset=".99"/>
</linearGradient>
<path class="st3" d="M360.6,0v79.4c0,4.4,3.6,8,8,8H448l-39.2-47.2L360.6,0z"/>
<linearGradient id="b" x1="-587.73" x2="-587.73" y1="729.11" y2="676.67" gradientTransform="matrix(8 0 0 -8 4921 6093)" gradientUnits="userSpaceOnUse">
	<stop stop-color="#FF5252" offset="0"/>
	<stop stop-color="#D50000" offset="1"/>
</linearGradient>
<path class="st4" d="m368.2 420h-298c-7.8 0-14.2-6.3-14.2-14.1v-128.2h312.2c7.8 0 14.2 6.3 14.2 14.2v114c-0.1 7.8-6.4 14.1-14.2 14.1z"/>
<linearGradient id="a" x1="-606.12" x2="-606.12" y1="745.3" y2="717.96" gradientTransform="matrix(8 0 0 -8 4921 6093)" gradientUnits="userSpaceOnUse">
	<stop stop-color="#FF5252" offset="0"/>
	<stop stop-color="#D50000" offset="1"/>
</linearGradient>
<path class="st5" d="m88 249.4h-17.9c-7.8 0-14.1 6.3-14.1 14.1s6.3 14.1 14.1 14.1h17.9v-28.2z"/>
<path class="st6" d="m120 376.3v-54.8c0-3.8 3.1-6.9 6.9-7 10.6-0.4 21.2-0.1 31.8 1 8.8 2.6 14.6 11 13.9 20.1 0.7 9.7-5.8 18.5-15.3 20.7-7 0.8-14.1 1.2-21.2 1-1.2 0-2.2 1-2.2 2.2v16.8c0 3.8-3.1 6.9-6.9 6.9-3.9 0-7-3.1-7-6.9zm13.9-47.9v15c0 1.2 1 2.2 2.2 2.2 5.5 0.4 11 0 16.3-1.1 4.8-1.9 7.2-7.4 5.2-12.2-1.2-3-3.9-5.2-7.1-5.8-4.8-0.4-9.6-0.6-14.5-0.5-1.1 0.1-2.1 1.1-2.1 2.4z"/>
<path class="st6" d="m184 321.4c0-3.8 3.1-6.9 6.9-7 10.5-0.6 21.1-0.2 31.5 1.3 8.2 2.6 14.5 9.2 16.9 17.5 1.6 5.3 2.4 10.7 2.2 16.2 0.1 5-0.6 9.9-2.1 14.6-2.2 8.5-8.7 15.1-17.1 17.6-10.4 1.5-20.9 2-31.4 1.5-3.8 0-6.9-3.1-6.9-6.9v-54.8zm13.9 7v41c0 1.2 1 2.2 2.2 2.2 5.5 0.3 11 0.1 16.5-0.7 4.7-1 8.4-4.7 9.2-9.5 1.1-4.1 1.5-8.3 1.4-12.6 0.1-4.1-0.3-8.2-1.4-12.2-1.2-5-5.3-8.9-10.4-9.9-5.1-0.6-10.3-0.8-15.4-0.7-1.2 0.1-2.1 1.1-2.1 2.4z"/>
<path class="st6" d="m253.5 376.3v-54.8c0-3.8 3.1-7 7-7h34.3c3.2 0 5.8 2.6 5.8 5.8s-2.6 5.8-5.8 5.8h-25.2c-1.2 0-2.2 1-2.2 2.2v11.8c0 1.2 1 2.2 2.2 2.2h20.6c3.2 0 5.8 2.6 5.8 5.8s-2.6 5.8-5.8 5.8h-20.6c-1.2 0-2.2 1-2.2 2.2v20c0 3.8-3.1 6.9-6.9 6.9-3.9 0.2-7-2.9-7-6.7z"/>
</svg>
