<svg xmlns="http://www.w3.org/2000/svg" viewBox="0 0 486.59 450.99"><path d="M524.7,636.34a62.87,62.87,0,0,1-62.87,62.87h-71v15.85h75A72.13,72.13,0,0,0,538,642.93V576.2H524.7ZM465.82,264.07h-75v15.85h71A62.87,62.87,0,0,1,524.7,342.8v80.7H538V336.21A72.13,72.13,0,0,0,465.82,264.07ZM64.61,636.34V576.2H51.36v66.73a72.13,72.13,0,0,0,72.13,72.13h79V699.21h-75A62.87,62.87,0,0,1,64.61,636.34ZM51.36,336.21V423.5H64.61V342.8a62.88,62.88,0,0,1,62.88-62.88h75V264.07h-79A72.13,72.13,0,0,0,51.36,336.21Z" transform="translate(-51.36 -264.07)" style="fill:#fff"/></svg>