<svg xmlns="http://www.w3.org/2000/svg" xmlns:xlink="http://www.w3.org/1999/xlink" viewBox="0 0 204.13 257.67"><defs><style>.a{fill:#bdab9f;}.b{fill:#6f6f6f;}.c{fill:#d5e0e6;}.d{fill:#b1b1b1;}.e{fill:#fff;}.f{fill:#e8dcb6;}.g{fill:url(#a);}</style><linearGradient id="a" x1="142.68" y1="61.78" x2="224.7" y2="155.41" gradientUnits="userSpaceOnUse"><stop offset="0" stop-color="#e96b50"/><stop offset="0.12" stop-color="#e56049"/><stop offset="0.44" stop-color="#dc4939"/><stop offset="0.74" stop-color="#d73b2f"/><stop offset="1" stop-color="#d5362c"/></linearGradient></defs><path class="a" d="M318.26,96.07a7.73,7.73,0,0,1,1.07,6.61c-.7,1.77-6.91,7.43-11.84,11.67-1,.85-1.91,1.64-2.74,2.33l.69.2,1.41.41c.2-.17.41-.32.6-.47,3.24-2.47,5.74-2.88,7.55-2.21,3.25,1.2,4.3,5.86,3.48,8.42a18,18,0,0,1-.64,2.83,0,0,0,0,1,0,0C316,132,310.72,141,304.54,150.81c-1.4,2.21-2.84,4.45-4.29,6.71-8.51,13.15-17.68,26.71-21.92,35.73-.91,1.94-1.18,13.58-1.06,29.79.11,15.47.57,35.1,1.15,54.43h-56.6c.81-26.24,1.77-44.17,2.33-57.53.51-12.31.68-20.74.09-28.21-.92-5-2.13-11.45-3.31-16.73-.44-1.95-1.05-4.25-1.75-6.81-3.82-13.86-10.48-35.17-8.35-47.44.69-4,5.88-17.23,8.77-27a41.08,41.08,0,0,0,1.07-5.3c.68-5.34,1.57-13.91,2.32-13.81h.07a4.75,4.75,0,0,1,1.25.34,11.79,11.79,0,0,0,1.92.59,7.58,7.58,0,0,1,3.07,1.08,6.41,6.41,0,0,1,1.46,1.51,10,10,0,0,1,.94,2.32,7.93,7.93,0,0,0,.41,1.05,2,2,0,0,0,.46.68c.1.09.75-.11,1.86-.53,1.9-.74,5.14-2.16,9.2-4,19.06-8.74,56.26-27.1,58.57-29,.44-.36.88-.72,1.32-1a30.64,30.64,0,0,1,4-2.65,11.83,11.83,0,0,1,5.78-1.79c6.29.14,4.24,7.75,0,12.63-1.89,2.2-3.66,4.49-5.57,6.77-1.23,1.48-2.52,3-3.93,4.4-1.07,1.08-2.2,2.15-3.44,3.18-.18.15,1.79,5,2.3,4.77s.76-.36,1.14-.52a25.25,25.25,0,0,1,4-1.42c2.58-.65,5-.64,6.91.52a10,10,0,0,1,2.81,2.43,9.31,9.31,0,0,1,1.94,4.21,6.93,6.93,0,0,1,0,4.57c-.52,1.28-3.15,4.46-6.2,7.78a5,5,0,0,1,.65.23l.37.16a17.66,17.66,0,0,1,1.67.92A6.21,6.21,0,0,1,318.26,96.07Z" transform="translate(-117.01 -19.8)"/><path class="b" d="M307.61,52.15c-.23-18.66-1-27.4-8.26-30.1-6.73-2.5-52-3.25-59.44-.54-6.66,2.41-8.49,7.79-9.7,14.22-1.53,8.14-.55,68.83-1,88.75-.59,24.88,1.21,34.4,11.07,35.71,3.66.49,50.76,3,59.09-2s7.7-23.48,8.21-48.17c.38-18.06.23-42.14,0-57.83Z" transform="translate(-117.01 -19.8)"/><path class="c" d="M301.55,139.61C300,143,285.06,144,270,144.25c-15.76.28-31.4.48-33.47-3.93-2.49-5.3-2.83-95.73-.35-108,1-5,16.45-6.4,32.8-6,13.86.34,31.07.35,33.28,5,2.78,5.76,1.51,103.61-.66,108.3Z" transform="translate(-117.01 -19.8)"/><path class="d" d="M212,121c.65-3.94,5.56-17.08,8.29-26.78,1.61-5.67,1.95-18,3.83-18.49,6-1.37,10.41,6,8.63,17-1.18,7.27-3.23,12.12-3.38,19.61-.07,2.91-.27,14.07-.8,15C223.21,137,210,132.74,212,121Z" transform="translate(-117.01 -19.8)"/><path class="a" d="M318.78,125c3-2.82-.28-16.66-11.69-7.17-5.85,4.87-13.58,12.6-13.95,18.32-.3,4.71,4.81,5.74,9.29,2.38A191.7,191.7,0,0,0,318.78,125Z" transform="translate(-117.01 -19.8)"/><path class="a" d="M311.82,94.83c4.1-4.2,8.23-8.88,8.91-10.52,1.77-4.24-2.19-12.75-10.28-6.49-9,6.93-13.5,12.49-12.53,19.37.36,2.5,2,5.33,4.63,5.11-4.83,4.35-9.28,9.32-7.8,14.21.8,2.63,5,5,9.52,1.32,4.75-3.82,15.43-12.91,16.38-15.25,1.37-3.36-1.22-11.73-8.83-7.75Z" transform="translate(-117.01 -19.8)"/><path class="e" d="M223.35,74.3c-.73-.08-1.6,7.77-2.26,12.66.06.46,3.39.68,4.56-1.23a17,17,0,0,0,2.11-6.94c.13-2.37-2.18-4.23-4.41-4.49Z" transform="translate(-117.01 -19.8)"/><path class="e" d="M300.92,129a10.77,10.77,0,0,0-5.08,5.43c-.39,1.24,2.29,3.54,2.88,3.48,2-.19,5.65-3.69,6-4.36,1.49-1.71-1.11-5.57-3.78-4.55Z" transform="translate(-117.01 -19.8)"/><path class="e" d="M302.68,92.9a11.87,11.87,0,0,0-4.17,5.31c-.44,1.61,2.59,5.05,3.71,4.6A21.84,21.84,0,0,0,307,98.73c2.09-2.84-.15-7.75-4.33-5.83Z" transform="translate(-117.01 -19.8)"/><path class="e" d="M299.61,108.3c-2.37,1.16-4.7,3.59-5.13,5.61-.32,1.54,3.71,4.61,4.36,4.51,2.18-.36,5.65-3.93,6-4.77,1.52-2.2-2.29-6.75-5.18-5.35Z" transform="translate(-117.01 -19.8)"/><path class="f" d="M218.53,277.47c1.73-28.7,3.09-50.37,3.38-57.83.75.1,1.49.21,2.24.3,17.56,2.31,35.32,2.94,53.12,3.1l4.3,0c.83,18.15,1.7,36.42,2.6,54.4Z" transform="translate(-117.01 -19.8)"/><path class="g" d="M180.29,195.34c1.55,0,63.34-36.42,63.34-63.62V76.56c0-11-3.47-15.62-12.94-19.66-7-3.13-33-12.12-39.69-14.25a37.37,37.37,0,0,0-10.71-1.75,40.82,40.82,0,0,0-10.72,1.75c-6.66,2.06-32.6,11.2-39.69,14.25-9.47,4-12.87,8.68-12.87,19.66v55.16C117,158.92,178.73,195.34,180.29,195.34Z" transform="translate(-117.01 -19.8)"/><path class="e" d="M202.7,148.06a6.76,6.76,0,0,1-5-2.11l-17.44-17.74L162.92,146a6.53,6.53,0,0,1-5,2.11,7,7,0,0,1-6.9-7.13A6.81,6.81,0,0,1,153,136l17.44-17.88L153,100.21a6.81,6.81,0,0,1-2.06-4.9,6.9,6.9,0,0,1,6.9-7.07,6.55,6.55,0,0,1,5,2l17.37,17.81,17.57-17.81a6.36,6.36,0,0,1,5-2.1,6.89,6.89,0,0,1,6.89,7.07,6.54,6.54,0,0,1-2.06,4.89l-17.5,18L207.54,136a7.11,7.11,0,0,1-4.84,12.1Z" transform="translate(-117.01 -19.8)"/></svg>